<?xml version="1.0" encoding="utf-8"?>
<!-- Generator: Adobe Illustrator 22.0.1, SVG Export Plug-In . SVG Version: 6.00 Build 0)  -->
<svg version="1.1" id="Layer_1" xmlns="http://www.w3.org/2000/svg" xmlns:xlink="http://www.w3.org/1999/xlink" x="0px" y="0px"
	 viewBox="0 0 64 64" style="enable-background:new 0 0 64 64;" xml:space="preserve">
<style type="text/css">
	.st0{fill:#231F20;}
	.st1{fill:none;stroke:#231F20;stroke-width:0.9727;stroke-miterlimit:10;}
</style>
<path class="st0" d="M37.8,40.7c0-1.3-0.4-2.3-1.3-3c-0.9-0.7-2.4-1.5-4.7-2.2c-4.6-1.5-8-3.1-10.2-4.8c-2.2-1.7-3.3-4.1-3.3-7.3
	c0-3.1,1.3-5.6,3.9-7.5C24.7,14,28,13,32,13c4.2,0,7.6,1,10.2,3c2.6,2,3.8,4.7,3.7,8.3l-0.1,0.2h-8.3c0-1.7-0.5-3-1.4-3.8
	c-0.9-0.8-2.4-1.2-4.3-1.2c-1.6,0-2.8,0.4-3.7,1.1c-0.9,0.8-1.3,1.7-1.3,2.8c0,1.1,0.5,2,1.4,2.6c0.9,0.7,2.6,1.5,5.2,2.4
	c4.3,1.3,7.5,2.8,9.7,4.6c2.2,1.8,3.3,4.3,3.3,7.5c0,3.2-1.3,5.8-3.8,7.6C40,50.1,36.7,51,32.5,51c-4.2,0-7.7-1-10.6-3
	c-2.9-2-4.3-5.1-4.2-9.3l0.1-0.2H26c0,2.1,0.5,3.7,1.6,4.6c1.1,0.9,2.7,1.4,4.9,1.4c1.8,0,3.1-0.4,4-1.1
	C37.4,42.8,37.8,41.8,37.8,40.7z"/>
<circle class="st1" cx="32" cy="32" r="31.1"/>
</svg>
